%FSLAX45Y45*%
G04 Gerber Fmt 4.5, Leading zero omitted, Abs format (unit mm)*
G04 Created by KiCad (PCBNEW 5.1.6) date 2020-08-27 23:48:38*
%MOMM*%
%LPD*%
G01*
G04 APERTURE LIST*
%TA.AperFunction,Profile*%
%ADD10C,0.050000*%
%TD*%
%ADD11C,0.200000*%
%ADD12C,0.300000*%
G04 APERTURE END LIST*
D10*
X4953000Y-5080000D02*
X4953000Y-3175000D01*
X6604000Y-5080000D02*
X4953000Y-5080000D01*
X6604000Y-3175000D02*
X6604000Y-5080000D01*
X4953000Y-3175000D02*
X6604000Y-3175000D01*
D11*
D12*
X5236928Y-5548214D02*
X5236928Y-5248214D01*
X5308357Y-5248214D01*
X5351214Y-5262500D01*
X5379786Y-5291072D01*
X5394071Y-5319643D01*
X5408357Y-5376786D01*
X5408357Y-5419643D01*
X5394071Y-5476786D01*
X5379786Y-5505357D01*
X5351214Y-5533929D01*
X5308357Y-5548214D01*
X5236928Y-5548214D01*
X5536928Y-5548214D02*
X5536928Y-5348214D01*
X5536928Y-5405357D02*
X5551214Y-5376786D01*
X5565500Y-5362500D01*
X5594071Y-5348214D01*
X5622643Y-5348214D01*
X5722643Y-5548214D02*
X5722643Y-5348214D01*
X5722643Y-5248214D02*
X5708357Y-5262500D01*
X5722643Y-5276786D01*
X5736928Y-5262500D01*
X5722643Y-5248214D01*
X5722643Y-5276786D01*
X5908357Y-5548214D02*
X5879786Y-5533929D01*
X5865500Y-5505357D01*
X5865500Y-5248214D01*
X6065500Y-5548214D02*
X6036928Y-5533929D01*
X6022643Y-5505357D01*
X6022643Y-5248214D01*
X6408357Y-5548214D02*
X6408357Y-5248214D01*
X6508357Y-5462500D01*
X6608357Y-5248214D01*
X6608357Y-5548214D01*
X6879786Y-5548214D02*
X6879786Y-5391072D01*
X6865500Y-5362500D01*
X6836928Y-5348214D01*
X6779786Y-5348214D01*
X6751214Y-5362500D01*
X6879786Y-5533929D02*
X6851214Y-5548214D01*
X6779786Y-5548214D01*
X6751214Y-5533929D01*
X6736928Y-5505357D01*
X6736928Y-5476786D01*
X6751214Y-5448214D01*
X6779786Y-5433929D01*
X6851214Y-5433929D01*
X6879786Y-5419643D01*
X7022643Y-5348214D02*
X7022643Y-5648214D01*
X7022643Y-5362500D02*
X7051214Y-5348214D01*
X7108357Y-5348214D01*
X7136928Y-5362500D01*
X7151214Y-5376786D01*
X7165500Y-5405357D01*
X7165500Y-5491072D01*
X7151214Y-5519643D01*
X7136928Y-5533929D01*
X7108357Y-5548214D01*
X7051214Y-5548214D01*
X7022643Y-5533929D01*
X7294071Y-5519643D02*
X7308357Y-5533929D01*
X7294071Y-5548214D01*
X7279786Y-5533929D01*
X7294071Y-5519643D01*
X7294071Y-5548214D01*
X7294071Y-5362500D02*
X7308357Y-5376786D01*
X7294071Y-5391072D01*
X7279786Y-5376786D01*
X7294071Y-5362500D01*
X7294071Y-5391072D01*
M02*
