%FSLAX45Y45*%
G04 Gerber Fmt 4.5, Leading zero omitted, Abs format (unit mm)*
G04 Created by KiCad (PCBNEW 5.1.6) date 2020-08-27 23:48:38*
%MOMM*%
%LPD*%
G01*
G04 APERTURE LIST*
%TA.AperFunction,Profile*%
%ADD10C,0.050000*%
%TD*%
%ADD11C,0.200000*%
%ADD12C,0.300000*%
G04 APERTURE END LIST*
D10*
X4953000Y-5080000D02*
X4953000Y-3175000D01*
X6604000Y-5080000D02*
X4953000Y-5080000D01*
X6604000Y-3175000D02*
X6604000Y-5080000D01*
X4953000Y-3175000D02*
X6604000Y-3175000D01*
D11*
X5233200Y-3861600D02*
X5333200Y-3961600D01*
X5333200Y-3861600D02*
X5233200Y-3961600D01*
X5233200Y-4115600D02*
X5333200Y-4215600D01*
X5333200Y-4115600D02*
X5233200Y-4215600D01*
D12*
X5236928Y-5548214D02*
X5236928Y-5248214D01*
X5308357Y-5248214D01*
X5351214Y-5262500D01*
X5379786Y-5291072D01*
X5394071Y-5319643D01*
X5408357Y-5376786D01*
X5408357Y-5419643D01*
X5394071Y-5476786D01*
X5379786Y-5505357D01*
X5351214Y-5533929D01*
X5308357Y-5548214D01*
X5236928Y-5548214D01*
X5536928Y-5548214D02*
X5536928Y-5348214D01*
X5536928Y-5405357D02*
X5551214Y-5376786D01*
X5565500Y-5362500D01*
X5594071Y-5348214D01*
X5622643Y-5348214D01*
X5722643Y-5548214D02*
X5722643Y-5348214D01*
X5722643Y-5248214D02*
X5708357Y-5262500D01*
X5722643Y-5276786D01*
X5736928Y-5262500D01*
X5722643Y-5248214D01*
X5722643Y-5276786D01*
X5908357Y-5548214D02*
X5879786Y-5533929D01*
X5865500Y-5505357D01*
X5865500Y-5248214D01*
X6065500Y-5548214D02*
X6036928Y-5533929D01*
X6022643Y-5505357D01*
X6022643Y-5248214D01*
X6408357Y-5548214D02*
X6408357Y-5248214D01*
X6508357Y-5462500D01*
X6608357Y-5248214D01*
X6608357Y-5548214D01*
X6879786Y-5548214D02*
X6879786Y-5391072D01*
X6865500Y-5362500D01*
X6836928Y-5348214D01*
X6779786Y-5348214D01*
X6751214Y-5362500D01*
X6879786Y-5533929D02*
X6851214Y-5548214D01*
X6779786Y-5548214D01*
X6751214Y-5533929D01*
X6736928Y-5505357D01*
X6736928Y-5476786D01*
X6751214Y-5448214D01*
X6779786Y-5433929D01*
X6851214Y-5433929D01*
X6879786Y-5419643D01*
X7022643Y-5348214D02*
X7022643Y-5648214D01*
X7022643Y-5362500D02*
X7051214Y-5348214D01*
X7108357Y-5348214D01*
X7136928Y-5362500D01*
X7151214Y-5376786D01*
X7165500Y-5405357D01*
X7165500Y-5491072D01*
X7151214Y-5519643D01*
X7136928Y-5533929D01*
X7108357Y-5548214D01*
X7051214Y-5548214D01*
X7022643Y-5533929D01*
X7294071Y-5519643D02*
X7308357Y-5533929D01*
X7294071Y-5548214D01*
X7279786Y-5533929D01*
X7294071Y-5519643D01*
X7294071Y-5548214D01*
X7294071Y-5362500D02*
X7308357Y-5376786D01*
X7294071Y-5391072D01*
X7279786Y-5376786D01*
X7294071Y-5362500D01*
X7294071Y-5391072D01*
X4850500Y-5992500D02*
X4950500Y-6092500D01*
X4950500Y-5992500D02*
X4850500Y-6092500D01*
X5394071Y-6178214D02*
X5222643Y-6178214D01*
X5308357Y-6178214D02*
X5308357Y-5878214D01*
X5279786Y-5921071D01*
X5251214Y-5949643D01*
X5222643Y-5963929D01*
X5522643Y-6149643D02*
X5536928Y-6163929D01*
X5522643Y-6178214D01*
X5508357Y-6163929D01*
X5522643Y-6149643D01*
X5522643Y-6178214D01*
X5722643Y-5878214D02*
X5751214Y-5878214D01*
X5779786Y-5892500D01*
X5794071Y-5906786D01*
X5808357Y-5935357D01*
X5822643Y-5992500D01*
X5822643Y-6063929D01*
X5808357Y-6121071D01*
X5794071Y-6149643D01*
X5779786Y-6163929D01*
X5751214Y-6178214D01*
X5722643Y-6178214D01*
X5694071Y-6163929D01*
X5679786Y-6149643D01*
X5665500Y-6121071D01*
X5651214Y-6063929D01*
X5651214Y-5992500D01*
X5665500Y-5935357D01*
X5679786Y-5906786D01*
X5694071Y-5892500D01*
X5722643Y-5878214D01*
X6008357Y-5878214D02*
X6036928Y-5878214D01*
X6065500Y-5892500D01*
X6079786Y-5906786D01*
X6094071Y-5935357D01*
X6108357Y-5992500D01*
X6108357Y-6063929D01*
X6094071Y-6121071D01*
X6079786Y-6149643D01*
X6065500Y-6163929D01*
X6036928Y-6178214D01*
X6008357Y-6178214D01*
X5979786Y-6163929D01*
X5965500Y-6149643D01*
X5951214Y-6121071D01*
X5936928Y-6063929D01*
X5936928Y-5992500D01*
X5951214Y-5935357D01*
X5965500Y-5906786D01*
X5979786Y-5892500D01*
X6008357Y-5878214D01*
X6236928Y-6178214D02*
X6236928Y-5978214D01*
X6236928Y-6006786D02*
X6251214Y-5992500D01*
X6279786Y-5978214D01*
X6322643Y-5978214D01*
X6351214Y-5992500D01*
X6365500Y-6021071D01*
X6365500Y-6178214D01*
X6365500Y-6021071D02*
X6379786Y-5992500D01*
X6408357Y-5978214D01*
X6451214Y-5978214D01*
X6479786Y-5992500D01*
X6494071Y-6021071D01*
X6494071Y-6178214D01*
X6636928Y-6178214D02*
X6636928Y-5978214D01*
X6636928Y-6006786D02*
X6651214Y-5992500D01*
X6679786Y-5978214D01*
X6722643Y-5978214D01*
X6751214Y-5992500D01*
X6765500Y-6021071D01*
X6765500Y-6178214D01*
X6765500Y-6021071D02*
X6779786Y-5992500D01*
X6808357Y-5978214D01*
X6851214Y-5978214D01*
X6879786Y-5992500D01*
X6894071Y-6021071D01*
X6894071Y-6178214D01*
X7479786Y-5863929D02*
X7222643Y-6249643D01*
X7865500Y-5878214D02*
X7894071Y-5878214D01*
X7922643Y-5892500D01*
X7936928Y-5906786D01*
X7951214Y-5935357D01*
X7965500Y-5992500D01*
X7965500Y-6063929D01*
X7951214Y-6121071D01*
X7936928Y-6149643D01*
X7922643Y-6163929D01*
X7894071Y-6178214D01*
X7865500Y-6178214D01*
X7836928Y-6163929D01*
X7822643Y-6149643D01*
X7808357Y-6121071D01*
X7794071Y-6063929D01*
X7794071Y-5992500D01*
X7808357Y-5935357D01*
X7822643Y-5906786D01*
X7836928Y-5892500D01*
X7865500Y-5878214D01*
X8094071Y-6149643D02*
X8108357Y-6163929D01*
X8094071Y-6178214D01*
X8079786Y-6163929D01*
X8094071Y-6149643D01*
X8094071Y-6178214D01*
X8294071Y-5878214D02*
X8322643Y-5878214D01*
X8351214Y-5892500D01*
X8365500Y-5906786D01*
X8379786Y-5935357D01*
X8394071Y-5992500D01*
X8394071Y-6063929D01*
X8379786Y-6121071D01*
X8365500Y-6149643D01*
X8351214Y-6163929D01*
X8322643Y-6178214D01*
X8294071Y-6178214D01*
X8265500Y-6163929D01*
X8251214Y-6149643D01*
X8236928Y-6121071D01*
X8222643Y-6063929D01*
X8222643Y-5992500D01*
X8236928Y-5935357D01*
X8251214Y-5906786D01*
X8265500Y-5892500D01*
X8294071Y-5878214D01*
X8494071Y-5878214D02*
X8679786Y-5878214D01*
X8579786Y-5992500D01*
X8622643Y-5992500D01*
X8651214Y-6006786D01*
X8665500Y-6021071D01*
X8679786Y-6049643D01*
X8679786Y-6121071D01*
X8665500Y-6149643D01*
X8651214Y-6163929D01*
X8622643Y-6178214D01*
X8536928Y-6178214D01*
X8508357Y-6163929D01*
X8494071Y-6149643D01*
X8822643Y-6178214D02*
X8879786Y-6178214D01*
X8908357Y-6163929D01*
X8922643Y-6149643D01*
X8951214Y-6106786D01*
X8965500Y-6049643D01*
X8965500Y-5935357D01*
X8951214Y-5906786D01*
X8936928Y-5892500D01*
X8908357Y-5878214D01*
X8851214Y-5878214D01*
X8822643Y-5892500D01*
X8808357Y-5906786D01*
X8794071Y-5935357D01*
X8794071Y-6006786D01*
X8808357Y-6035357D01*
X8822643Y-6049643D01*
X8851214Y-6063929D01*
X8908357Y-6063929D01*
X8936928Y-6049643D01*
X8951214Y-6035357D01*
X8965500Y-6006786D01*
X9079786Y-5878214D02*
X9079786Y-5935357D01*
X9194071Y-5878214D02*
X9194071Y-5935357D01*
X9636928Y-6292500D02*
X9622643Y-6278214D01*
X9594071Y-6235357D01*
X9579786Y-6206786D01*
X9565500Y-6163929D01*
X9551214Y-6092500D01*
X9551214Y-6035357D01*
X9565500Y-5963929D01*
X9579786Y-5921071D01*
X9594071Y-5892500D01*
X9622643Y-5849643D01*
X9636928Y-5835357D01*
X9736928Y-5906786D02*
X9751214Y-5892500D01*
X9779786Y-5878214D01*
X9851214Y-5878214D01*
X9879786Y-5892500D01*
X9894071Y-5906786D01*
X9908357Y-5935357D01*
X9908357Y-5963929D01*
X9894071Y-6006786D01*
X9722643Y-6178214D01*
X9908357Y-6178214D01*
X10265500Y-6178214D02*
X10265500Y-5878214D01*
X10394071Y-6178214D02*
X10394071Y-6021071D01*
X10379786Y-5992500D01*
X10351214Y-5978214D01*
X10308357Y-5978214D01*
X10279786Y-5992500D01*
X10265500Y-6006786D01*
X10579786Y-6178214D02*
X10551214Y-6163929D01*
X10536928Y-6149643D01*
X10522643Y-6121071D01*
X10522643Y-6035357D01*
X10536928Y-6006786D01*
X10551214Y-5992500D01*
X10579786Y-5978214D01*
X10622643Y-5978214D01*
X10651214Y-5992500D01*
X10665500Y-6006786D01*
X10679786Y-6035357D01*
X10679786Y-6121071D01*
X10665500Y-6149643D01*
X10651214Y-6163929D01*
X10622643Y-6178214D01*
X10579786Y-6178214D01*
X10851214Y-6178214D02*
X10822643Y-6163929D01*
X10808357Y-6135357D01*
X10808357Y-5878214D01*
X11079786Y-6163929D02*
X11051214Y-6178214D01*
X10994071Y-6178214D01*
X10965500Y-6163929D01*
X10951214Y-6135357D01*
X10951214Y-6021071D01*
X10965500Y-5992500D01*
X10994071Y-5978214D01*
X11051214Y-5978214D01*
X11079786Y-5992500D01*
X11094071Y-6021071D01*
X11094071Y-6049643D01*
X10951214Y-6078214D01*
X11208357Y-6163929D02*
X11236928Y-6178214D01*
X11294071Y-6178214D01*
X11322643Y-6163929D01*
X11336928Y-6135357D01*
X11336928Y-6121071D01*
X11322643Y-6092500D01*
X11294071Y-6078214D01*
X11251214Y-6078214D01*
X11222643Y-6063929D01*
X11208357Y-6035357D01*
X11208357Y-6021071D01*
X11222643Y-5992500D01*
X11251214Y-5978214D01*
X11294071Y-5978214D01*
X11322643Y-5992500D01*
X11436928Y-6292500D02*
X11451214Y-6278214D01*
X11479786Y-6235357D01*
X11494071Y-6206786D01*
X11508357Y-6163929D01*
X11522643Y-6092500D01*
X11522643Y-6035357D01*
X11508357Y-5963929D01*
X11494071Y-5921071D01*
X11479786Y-5892500D01*
X11451214Y-5849643D01*
X11436928Y-5835357D01*
M02*
